<?xml version="1.0" encoding="iso-8859-1"?>
<!-- Generator: Adobe Illustrator 19.0.0, SVG Export Plug-In . SVG Version: 6.00 Build 0)  -->
<svg version="1.1" id="Capa_1" xmlns="http://www.w3.org/2000/svg" xmlns:xlink="http://www.w3.org/1999/xlink" x="0px" y="0px"
	 viewBox="0 0 512 512" style="enable-background:new 0 0 512 512;" xml:space="preserve">
<circle style="fill:#35CCFF;" cx="256" cy="256" r="256"/>
<path style="fill:#00BAFF;" d="M512,256c0-7.458-0.338-14.837-0.963-22.134L405.545,128.375l-29.738,24.04l-52.75-52.75
	l-5.951,5.951L271.5,60.01l-13.876,148.323H217v58.932L60.011,271.5l40.578,40.578l-0.924,10.979l54.016,54.016l-25.306,28.473
	l105.491,105.491C241.163,511.662,248.541,512,256,512C397.385,512,512,397.385,512,256z"/>
<path style="fill:#FFFFFF;" d="M451.989,240.5h-47.371l29.637-29.637l-21.92-21.92L360.777,240.5h-41.146
	c-1.614-6.623-4.224-12.859-7.684-18.527l93.598-93.598l-21.92-21.92l-93.599,93.599c-5.668-3.46-11.904-6.07-18.527-7.684v-41.146
	l51.557-51.557l-21.92-21.92L271.5,107.382V60.01h-31v47.371l-29.637-29.637l-21.92,21.92l51.557,51.557v41.146
	c-6.623,1.614-12.859,4.224-18.527,7.684l-93.599-93.599l-21.92,21.92l93.598,93.598c-3.46,5.668-6.07,11.904-7.684,18.527h-41.146
	L99.664,188.94l-21.92,21.92l29.637,29.637h-47.37v31h47.371l-29.637,29.637l21.92,21.92l51.558-51.557h41.146
	c1.614,6.623,4.224,12.859,7.684,18.527l-93.598,93.598l21.92,21.92l93.599-93.599c5.668,3.46,11.904,6.07,18.527,7.684v41.146
	l-51.557,51.557l21.92,21.92l29.637-29.637v47.371h31v-47.371l29.637,29.637l21.92-21.92L271.5,360.777v-41.146
	c6.623-1.614,12.859-4.224,18.527-7.684l93.599,93.599l21.92-21.92l-93.598-93.599c3.46-5.668,6.07-11.904,7.684-18.527h41.146
	l51.558,51.557l21.92-21.92L404.618,271.5h47.371V240.5z M256,290.5c-19.023,0-34.5-15.477-34.5-34.5s15.477-34.5,34.5-34.5
	s34.5,15.477,34.5,34.5S275.023,290.5,256,290.5z"/>
<path style="fill:#E0E0E0;" d="M451.989,240.5h-47.371l29.637-29.637l-21.92-21.92L360.777,240.5h-41.146
	c-1.614-6.623-4.224-12.859-7.684-18.527l93.598-93.598l-21.92-21.92l-93.599,93.599c-5.668-3.46-11.904-6.07-18.527-7.684v-41.146
	l51.557-51.557l-21.92-21.92L271.5,107.382V60.01h-15.833v161.498c0.112-0.001,0.222-0.009,0.333-0.009
	c19.023,0,34.5,15.477,34.5,34.5s-15.477,34.5-34.5,34.5c-0.112,0-0.222-0.007-0.333-0.009v161.5H271.5v-47.371l29.637,29.637
	l21.92-21.92L271.5,360.777v-41.146c6.623-1.614,12.859-4.224,18.527-7.684l93.599,93.599l21.92-21.92l-93.598-93.599
	c3.46-5.668,6.07-11.904,7.684-18.527h41.146l51.558,51.557l21.92-21.92L404.618,271.5h47.371V240.5z"/>
<g>
</g>
<g>
</g>
<g>
</g>
<g>
</g>
<g>
</g>
<g>
</g>
<g>
</g>
<g>
</g>
<g>
</g>
<g>
</g>
<g>
</g>
<g>
</g>
<g>
</g>
<g>
</g>
<g>
</g>
</svg>
